<!DOCTYPE svg PUBLIC "-//W3C//DTD SVG 1.1//EN" "http://www.w3.org/Graphics/SVG/1.1/DTD/svg11.dtd">
<!-- Uploaded to: SVG Repo, www.svgrepo.com, Transformed by: SVG Repo Mixer Tools -->
<svg fill="#fff" height="256px" width="256px" version="1.1" id="Layer_1" xmlns="http://www.w3.org/2000/svg" xmlns:xlink="http://www.w3.org/1999/xlink" viewBox="-51.2 -51.2 614.40 614.40" xml:space="preserve" stroke="#fff">
<g id="SVGRepo_bgCarrier" stroke-width="0">
<rect x="-51.2" y="-51.2" width="614.40" height="614.40" rx="307.2" fill="#019d91" strokewidth="0"/>
</g>
<g id="SVGRepo_tracerCarrier" stroke-linecap="round" stroke-linejoin="round"/>
<g id="SVGRepo_iconCarrier"> <g> <g> <path d="M491.124,328.439c-10.233-17.742-28.904-27.917-51.222-27.917c-23.642,0-44.048-15.853-47.467-36.875 c-2.178-13.394,1.372-26.356,9.997-36.497c8.471-9.96,20.826-15.672,33.898-15.672c24.545,0,44.564-10.327,54.924-28.333 c9.795-17.025,9.639-38.337-0.407-55.617C445.136,48.867,360.274,0,269.38,0c-61.683,0-118.886,20.734-165.427,59.962 c-44.305,37.343-74.709,88.804-85.609,144.903c-14.896,76.663,4.627,154.677,53.563,214.037 C120.683,478.067,192.656,512,269.374,512c91.108,0,176.073-49.044,221.739-127.993 C501.016,366.89,501.02,345.598,491.124,328.439z M85.722,256c0-27.618,22.469-50.087,50.087-50.087 c27.618,0,50.087,22.469,50.087,50.087c0,27.618-22.469,50.087-50.087,50.087C108.191,306.087,85.722,283.618,85.722,256z M245.968,396.714c-9.266,16.049-26.139,25.033-43.461,25.033c-8.493,0-17.091-2.158-24.96-6.702 c-11.587-6.689-19.873-17.49-23.337-30.413c-3.463-12.922-1.685-26.42,5.004-38.007c6.689-11.586,17.489-19.873,30.413-23.336 c12.922-3.462,26.42-1.685,38.006,5.004C251.552,342.103,259.776,372.796,245.968,396.714z M227.635,183.706 c-7.717,4.456-16.283,6.732-24.962,6.733c-4.351,0-8.73-0.572-13.045-1.729c-12.922-3.463-23.723-11.75-30.413-23.337 s-8.467-25.085-5.004-38.007c3.463-12.922,11.75-23.723,23.337-30.413c11.587-6.69,25.086-8.467,38.007-5.004 c12.922,3.463,23.723,11.75,30.414,23.337C259.776,139.204,251.552,169.897,227.635,183.706z M292.78,115.286 c6.689-11.586,17.489-19.873,30.413-23.336c12.924-3.462,26.42-1.685,38.006,5.004c23.918,13.808,32.141,44.502,18.334,68.42 c-6.689,11.587-17.49,19.873-30.413,23.337c-4.314,1.156-8.695,1.729-13.045,1.729c-8.68,0-17.244-2.276-24.962-6.733 c-11.586-6.689-19.873-17.49-23.336-30.413C284.313,140.369,286.091,126.871,292.78,115.286z M361.2,415.047 c-7.867,4.542-16.469,6.701-24.959,6.701c-17.325,0-34.194-8.982-43.46-25.033c-6.689-11.587-8.467-25.085-5.004-38.007 c3.463-12.922,11.75-23.723,23.337-30.413c11.587-6.69,25.086-8.468,38.007-5.004c12.922,3.463,23.723,11.75,30.414,23.337 C393.342,370.546,385.117,401.239,361.2,415.047z"/> </g> </g> </g>
</svg>