<!DOCTYPE svg PUBLIC "-//W3C//DTD SVG 1.1//EN" "http://www.w3.org/Graphics/SVG/1.1/DTD/svg11.dtd">
<!-- Uploaded to: SVG Repo, www.svgrepo.com, Transformed by: SVG Repo Mixer Tools -->
<svg fill="#fcfcfc" width="800px" height="800px" viewBox="-1.4 -1.4 16.80 16.80" role="img" focusable="false" aria-hidden="true" xmlns="http://www.w3.org/2000/svg">
<g id="SVGRepo_bgCarrier" stroke-width="0">
<path transform="translate(-1.4, -1.4), scale(1.05)" fill="#d952ff" d="M9.166.33a2.25 2.25 0 00-2.332 0l-5.25 3.182A2.25 2.25 0 00.5 5.436v5.128a2.25 2.25 0 001.084 1.924l5.25 3.182a2.25 2.25 0 002.332 0l5.25-3.182a2.25 2.25 0 001.084-1.924V5.436a2.25 2.25 0 00-1.084-1.924L9.166.33z" strokewidth="0"/>
</g>
<g id="SVGRepo_tracerCarrier" stroke-linecap="round" stroke-linejoin="round"/>
<g id="SVGRepo_iconCarrier">
<path d="m 6.836416,8.898735 1.221032,0 -2.985394,-7.594938 -1.08666,0 L 1,8.898735 l 1.221032,0 0.654334,-1.752678 3.295034,0 0.666016,1.752678 z m -3.51704,-2.92113 1.209348,-3.224928 1.209348,3.224928 -2.418696,0 z m 8.856866,0.344694 -4.726388,4.726386 -2.14411,-2.14995 -0.823758,0.823758 2.97371,2.97371 L 13,7.146057 12.176242,6.322299 Z"/>
</g>
</svg>