<!DOCTYPE svg PUBLIC "-//W3C//DTD SVG 1.1//EN" "http://www.w3.org/Graphics/SVG/1.1/DTD/svg11.dtd">
<!-- Uploaded to: SVG Repo, www.svgrepo.com, Transformed by: SVG Repo Mixer Tools -->
<svg fill="#fcfcfc" xmlns="http://www.w3.org/2000/svg" width="800px" height="800px" viewBox="-10 -10 120.00 120.00" enable-background="new 0 0 100 100" xml:space="preserve">
<g id="SVGRepo_bgCarrier" stroke-width="0">
<path transform="translate(-10, -10), scale(7.5)" fill="#b700fa" d="M9.166.33a2.25 2.25 0 00-2.332 0l-5.25 3.182A2.25 2.25 0 00.5 5.436v5.128a2.25 2.25 0 001.084 1.924l5.25 3.182a2.25 2.25 0 002.332 0l5.25-3.182a2.25 2.25 0 001.084-1.924V5.436a2.25 2.25 0 00-1.084-1.924L9.166.33z" strokewidth="0"/>
</g>
<g id="SVGRepo_tracerCarrier" stroke-linecap="round" stroke-linejoin="round"/>
<g id="SVGRepo_iconCarrier"> <path d="M73.8,20H26.2c-3.4,0-6.2,2.8-6.2,6.2v47.6c0,3.4,2.8,6.2,6.2,6.2h47.6c3.4,0,6.2-2.8,6.2-6.2V26.2 C80,22.8,77.2,20,73.8,20z M42.3,69.1c0,0.8-0.8,1.4-1.6,1.4H30.6h-0.2c-0.8,0-1.4-0.8-1.4-1.6V48.8c0-0.8,0.8-1.4,1.6-1.4H41 c0.8,0,1.4,0.8,1.4,1.6V69.1z M70.7,69.3c0,0.8-0.8,1.4-1.6,1.4H49.9c-0.8,0-1.4-0.8-1.4-1.6V48.8c0-0.8,0.8-1.4,1.6-1.4h19.1h0.2 c0.8,0,1.4,0.8,1.4,1.6V69.3z M70.9,39.9c0,0.8-0.8,1.4-1.6,1.4H30.6h-0.2c-0.8,0-1.4-0.8-1.4-1.6v-9c0-0.8,0.8-1.4,1.6-1.4h38.9 c0.8,0,1.4,0.8,1.4,1.6V39.9z"/> </g>
</svg>