<svg version="1.2" xmlns="http://www.w3.org/2000/svg" viewBox="26.999999999999986 -68 365 90" width="366" height="90">
	<title>4951215</title>
	<defs>
		<linearGradient id="g1" x2="1" gradientUnits="userSpaceOnUse" gradientTransform="matrix(-26.432,-45.782,25.933,-14.973,74.745,11.533)">
			<stop offset="0" stop-color="#06b6d4"/>
			<stop offset="1" stop-color="#0b9ab4"/>
		</linearGradient>
		<linearGradient id="g2" x2="1" gradientUnits="userSpaceOnUse" gradientTransform="matrix(14.736,0,0,7.996,72.306,-33.71)">
			<stop offset="0" stop-color="#0fbcda"/>
			<stop offset="1" stop-color="#06b6d4"/>
		</linearGradient>
		<linearGradient id="g3" x2="1" gradientUnits="userSpaceOnUse" gradientTransform="matrix(-15.211,0,0,-8.151,77.343,-3.841)">
			<stop offset="0" stop-color="#0fbcda"/>
			<stop offset="1" stop-color="#06b6d4"/>
		</linearGradient>
		<linearGradient id="g4" x2="1" gradientUnits="userSpaceOnUse" gradientTransform="matrix(26.237,0,0,-19.255,65.369,10.311)">
			<stop offset="0" stop-color="#006699"/>
			<stop offset=".871" stop-color="#06b6d4"/>
			<stop offset="1" stop-color="#0891b2"/>
		</linearGradient>
		<linearGradient id="g5" x2="1" gradientUnits="userSpaceOnUse" gradientTransform="matrix(28.316,0,0,23.299,55.308,-47.997)">
			<stop offset="0" stop-color="#000000"/>
			<stop offset="0" stop-color="#06b6d4"/>
			<stop offset=".383" stop-color="#26a69a"/>
			<stop offset="1" stop-color="#0891b2"/>
		</linearGradient>
		<linearGradient id="g6" x2="1" gradientUnits="userSpaceOnUse" gradientTransform="matrix(-8.32,-14.41,8.362,-4.828,65.667,-14.321)">
			<stop offset="0" stop-color="#006699"/>
			<stop offset="1" stop-color="#006699"/>
		</linearGradient>
		<linearGradient id="g7" x2="1" gradientUnits="userSpaceOnUse" gradientTransform="matrix(-16.241,-16.241,11.878,-11.878,86.485,2.313)">
			<stop offset="0" stop-color="#006699"/>
			<stop offset="1" stop-color="#06b6d4"/>
		</linearGradient>
	</defs>
	<style>
		tspan { white-space:pre } 
		.s0 { fill: url(#g1) } 
		.s1 { fill: url(#g2) } 
		.s2 { fill: url(#g3) } 
		.s3 { fill: url(#g4) } 
		.s4 { fill: url(#g5) } 
		.s5 { fill: url(#g6) } 
		.s6 { fill: url(#g7) } 
		.t7 { font-size: 25px;fill: #0b9ab4;font-weight: 900;font-family: "Lato-Black", "Lato" } 
		.t8 { font-size: 19px;fill: #06b6d4;font-weight: 900;font-family: "Lato-Black", "Lato" } 
	</style>
	<g id="BACKGROUND">
	</g>
	<g id="OBJECTS">
		<g id="&lt;Group&gt;">
			<g id="&lt;Group&gt;">
			</g>
		</g>
		<g id="&lt;Group&gt;">
			<g id="&lt;Group&gt;">
				<g id="&lt;Group&gt;">
					<path id="&lt;Path&gt;" class="s0" d="m99.3-33.1q-0.4-0.3-1-0.5-0.6-0.3-1.2-0.3-0.6-0.1-1.2 0-0.6 0.2-1.3 0.5l-46.8 27.3 1.9 1.5q1.1 0.8 2.1 0.9 1.2 0 2.3-0.6l47.1-27.3z"/>
				</g>
				<g id="&lt;Group&gt;">
					<path id="&lt;Path&gt;" class="s1" d="m85.1-32.8q-0.4-0.4-0.9-0.6-0.6-0.2-1.2-0.3-0.6-0.1-1.3 0.1-0.6 0.1-1.2 0.5l-8.2 5 1.9 1.5q1 0.8 2.1 0.9 1.2 0.1 2.3-0.6l8.4-5z"/>
				</g>
				<g id="&lt;Group&gt;">
					<path id="&lt;Path&gt;" class="s2" d="m64-4.7q0.4 0.3 1 0.5 0.6 0.3 1.2 0.3 0.6 0.1 1.2 0 0.6-0.2 1.3-0.5l8.6-5.2-1.9-1.5q-1-0.8-2.1-0.9-1.1-0.1-2.3 0.6l-8.9 5.2z"/>
				</g>
				<g id="&lt;Group&gt;">
					<path id="&lt;Path&gt;" class="s3" d="m84.6-8.9l7 4q-0.2 0.2-0.4 0.3l-25.8 14.9v-5.9c0-1.4 0.7-2.7 1.9-3.4z"/>
					<g id="&lt;Group&gt;">
						<path id="&lt;Path&gt;" class="s4" d="m83.6-48v5.9c0 1.4-0.7 2.7-1.9 3.4l-24.3 14c-1.3-0.9-2.1-2.4-2.1-4 0-1.8 1-3.5 2.5-4.4z"/>
						<path id="&lt;Path&gt;" class="s5" d="m74-23.2l-7.1 4.1-1.5-0.9-7.6-4.4q-0.2-0.1-0.4-0.3l7-4.1z"/>
						<path id="&lt;Path&gt;" class="s6" d="m93.7-8.9c0 1.6-0.8 3.1-2.1 4l-16.7-9.6 7.1-4.1 1.6 0.9v0.1l7.6 4.3c1.5 0.9 2.5 2.6 2.5 4.4z"/>
					</g>
				</g>
			</g>
			<g id="&lt;Group&gt;">
				<text id="Satendra coder" style="transform: matrix(1.455,0,0,1.455,105.769,-20.445)" >
					<tspan x="0" y="0" class="t7">S</tspan><tspan  y="0" class="t7">atendr</tspan><tspan  y="0" class="t7">a</tspan><tspan  y="0" class="t7"> </tspan><tspan  y="0" class="t7">c</tspan><tspan  y="0" class="t7">od</tspan><tspan  y="0" class="t7">e</tspan><tspan  y="0" class="t7">r</tspan><tspan  y="0" class="t7">
</tspan>
				</text>
				<text id="iT Hub Technologies" style="transform: matrix(.965,0,0,.965,111.742,6.077)" >
					<tspan x="0" y="0" class="t8">i</tspan><tspan  y="0" class="t8">T</tspan><tspan  y="0" class="t8"> </tspan><tspan  y="0" class="t8">H</tspan><tspan  y="0" class="t8">u</tspan><tspan  y="0" class="t8">b</tspan><tspan  y="0" class="t8"> </tspan><tspan  y="0" class="t8">T</tspan><tspan  y="0" class="t8">e</tspan><tspan  y="0" class="t8">c</tspan><tspan  y="0" class="t8">h</tspan><tspan  y="0" class="t8">n</tspan><tspan  y="0" class="t8">o</tspan><tspan  y="0" class="t8">l</tspan><tspan  y="0" class="t8">o</tspan><tspan  y="0" class="t8">g</tspan><tspan  y="0" class="t8">i</tspan><tspan  y="0" class="t8">e</tspan><tspan  y="0" class="t8">s</tspan><tspan  y="0" class="t8">
</tspan>
				</text>
			</g>
		</g>
		<g id="Shape 2">
			<g id="&lt;Group&gt;">
				<g id="&lt;Group&gt;">
				</g>
			</g>
			<g id="&lt;Group&gt;">
			</g>
		</g>
	</g>
</svg>